<svg width="84" height="84" viewBox="0 0 84 84" fill="none" xmlns="http://www.w3.org/2000/svg">
<rect width="84" height="84" rx="42" fill="white"/>
<path d="M51.3334 58.3332H32.6668V61.8332C32.6668 62.7614 32.298 63.6517 31.6416 64.308C30.9852 64.9644 30.095 65.3332 29.1667 65.3332H26.8334C25.9052 65.3332 25.0149 64.9644 24.3585 64.308C23.7022 63.6517 23.3334 62.7614 23.3334 61.8332V57.9365C21.9681 57.4538 20.786 56.5595 19.9502 55.3768C19.1144 54.1941 18.666 52.7814 18.6667 51.3332V44.3332C18.6667 42.8865 19.1054 41.5425 19.8567 40.4272L22.3907 24.5605C22.6539 22.9159 23.4948 21.4191 24.7624 20.3388C26.03 19.2585 27.6413 18.6656 29.3067 18.6665H54.6934C56.3576 18.6679 57.9669 19.2621 59.2327 20.3427C60.4984 21.4233 61.3377 22.9194 61.6001 24.5628L64.1271 40.4062C64.8878 41.5262 65.3311 42.8795 65.3311 44.3332V51.3332C65.3318 52.7814 64.8834 54.1941 64.0476 55.3768C63.2118 56.5595 62.0298 57.4538 60.6644 57.9365V61.8332C60.6644 62.7614 60.2957 63.6517 59.6393 64.308C58.9829 64.9644 58.0927 65.3332 57.1644 65.3332H54.8311C53.9028 65.3332 53.0126 64.9644 52.3562 64.308C51.6998 63.6517 51.3311 62.7614 51.3311 61.8332L51.3334 58.3332ZM58.9168 37.3565L56.9941 25.2978C56.9065 24.7504 56.6269 24.2521 56.2053 23.8921C55.7837 23.5321 55.2478 23.334 54.6934 23.3332H29.3044C28.7493 23.3329 28.2122 23.5305 27.7896 23.8906C27.3671 24.2507 27.0868 24.7496 26.9991 25.2978L25.0741 37.3588C25.2712 37.3419 25.4689 37.3333 25.6667 37.3332H58.3334C58.531 37.3332 58.7254 37.3409 58.9168 37.3565ZM54.8334 51.3332C55.293 51.3332 55.7482 51.2426 56.1728 51.0667C56.5975 50.8909 56.9833 50.633 57.3083 50.308C57.6333 49.983 57.8911 49.5972 58.067 49.1726C58.2429 48.7479 58.3334 48.2928 58.3334 47.8332C58.3334 47.3735 58.2429 46.9184 58.067 46.4938C57.8911 46.0691 57.6333 45.6833 57.3083 45.3583C56.9833 45.0333 56.5975 44.7755 56.1728 44.5996C55.7482 44.4237 55.293 44.3332 54.8334 44.3332C53.9052 44.3332 53.0149 44.7019 52.3585 45.3583C51.7022 46.0147 51.3334 46.9049 51.3334 47.8332C51.3334 48.7614 51.7022 49.6517 52.3585 50.308C53.0149 50.9644 53.9052 51.3332 54.8334 51.3332ZM29.1667 51.3332C29.6264 51.3332 30.0815 51.2426 30.5061 51.0667C30.9308 50.8909 31.3166 50.633 31.6416 50.308C31.9666 49.983 32.2244 49.5972 32.4003 49.1726C32.5762 48.7479 32.6668 48.2928 32.6668 47.8332C32.6668 47.3735 32.5762 46.9184 32.4003 46.4938C32.2244 46.0691 31.9666 45.6833 31.6416 45.3583C31.3166 45.0333 30.9308 44.7755 30.5061 44.5996C30.0815 44.4237 29.6264 44.3332 29.1667 44.3332C28.2385 44.3332 27.3483 44.7019 26.6919 45.3583C26.0355 46.0147 25.6667 46.9049 25.6667 47.8332C25.6667 48.7614 26.0355 49.6517 26.6919 50.308C27.3483 50.9644 28.2385 51.3332 29.1667 51.3332ZM30.8094 25.8858C31.4283 25.8858 32.0217 26.1317 32.4593 26.5693C32.8969 27.0068 33.1428 27.6003 33.1428 28.2192V32.8858C33.1428 33.5047 32.8969 34.0982 32.4593 34.5358C32.0217 34.9733 31.4283 35.2192 30.8094 35.2192C30.1906 35.2192 29.5971 34.9733 29.1595 34.5358C28.7219 34.0982 28.4761 33.5047 28.4761 32.8858V28.2192C28.4761 27.6003 28.7219 27.0068 29.1595 26.5693C29.5971 26.1317 30.1906 25.8858 30.8094 25.8858Z" fill="black"/>
</svg>
