<svg width="84" height="84" viewBox="0 0 84 84" fill="none" xmlns="http://www.w3.org/2000/svg">
<rect width="84" height="84" rx="42" fill="white"/>
<path d="M55.9999 39.6665H27.9999V27.9998H55.9999M52.4999 53.6665C51.5717 53.6665 50.6814 53.2978 50.025 52.6414C49.3687 51.985 48.9999 51.0948 48.9999 50.1665C48.9999 49.2382 49.3687 48.348 50.025 47.6916C50.6814 47.0353 51.5717 46.6665 52.4999 46.6665C53.4282 46.6665 54.3184 47.0353 54.9748 47.6916C55.6312 48.348 55.9999 49.2382 55.9999 50.1665C55.9999 51.0948 55.6312 51.985 54.9748 52.6414C54.3184 53.2978 53.4282 53.6665 52.4999 53.6665ZM31.4999 53.6665C30.5717 53.6665 29.6814 53.2978 29.025 52.6414C28.3687 51.985 27.9999 51.0948 27.9999 50.1665C27.9999 49.2382 28.3687 48.348 29.025 47.6916C29.6814 47.0353 30.5717 46.6665 31.4999 46.6665C32.4282 46.6665 33.3184 47.0353 33.9748 47.6916C34.6312 48.348 34.9999 49.2382 34.9999 50.1665C34.9999 51.0948 34.6312 51.985 33.9748 52.6414C33.3184 53.2978 32.4282 53.6665 31.4999 53.6665ZM23.3333 51.3332C23.3333 53.3865 24.2433 55.2298 25.6666 56.5132V60.6665C25.6666 61.2853 25.9124 61.8788 26.35 62.3164C26.7876 62.754 27.3811 62.9998 27.9999 62.9998H30.3333C30.9521 62.9998 31.5456 62.754 31.9832 62.3164C32.4208 61.8788 32.6666 61.2853 32.6666 60.6665V58.3332H51.3333V60.6665C51.3333 61.2853 51.5791 61.8788 52.0167 62.3164C52.4543 62.754 53.0477 62.9998 53.6666 62.9998H55.9999C56.6188 62.9998 57.2122 62.754 57.6498 62.3164C58.0874 61.8788 58.3333 61.2853 58.3333 60.6665V56.5132C59.7566 55.2298 60.6666 53.3865 60.6666 51.3332V27.9998C60.6666 19.8332 52.3133 18.6665 41.9999 18.6665C31.6866 18.6665 23.3333 19.8332 23.3333 27.9998V51.3332Z" fill="black"/>
</svg>
