<svg width="84" height="84" viewBox="0 0 84 84" fill="none" xmlns="http://www.w3.org/2000/svg">
<rect width="84" height="84" rx="42" fill="white"/>
<path d="M23.3333 50.1665V27.9999C23.3333 25.9387 23.8684 24.2953 24.9386 23.0695C26.0088 21.8437 27.4181 20.9104 29.1666 20.2695C30.915 19.6286 32.9085 19.2009 35.1469 18.9862C37.3854 18.7715 39.6697 18.665 41.9999 18.6665C44.5666 18.6665 46.9878 18.7739 49.2636 18.9885C51.5394 19.2032 53.5227 19.631 55.2136 20.2719C56.9045 20.9127 58.236 21.8461 59.2083 23.0719C60.1805 24.2976 60.6666 25.9403 60.6666 27.9999V50.1665C60.6666 52.461 59.8795 54.3961 58.3053 55.9719C56.731 57.5476 54.7959 58.3347 52.4999 58.3332L55.9999 61.8332V62.9999H51.3333L46.6666 58.3332H37.3333L32.6666 62.9999H27.9999V61.8332L31.4999 58.3332C29.2055 58.3332 27.2704 57.5461 25.6946 55.9719C24.1188 54.3976 23.3317 52.4625 23.3333 50.1665ZM27.9999 37.3332H39.6666V30.3332H27.9999V37.3332ZM44.3333 37.3332H55.9999V30.3332H44.3333V37.3332ZM33.8333 51.3332C34.8444 51.3332 35.6805 51.0026 36.3416 50.3415C37.0027 49.6804 37.3333 48.8443 37.3333 47.8332C37.3333 46.8221 37.0027 45.986 36.3416 45.3249C35.6805 44.6637 34.8444 44.3332 33.8333 44.3332C32.8221 44.3332 31.986 44.6637 31.3249 45.3249C30.6638 45.986 30.3333 46.8221 30.3333 47.8332C30.3333 48.8443 30.6638 49.6804 31.3249 50.3415C31.986 51.0026 32.8221 51.3332 33.8333 51.3332ZM50.1666 51.3332C51.1777 51.3332 52.0138 51.0026 52.6749 50.3415C53.336 49.6804 53.6666 48.8443 53.6666 47.8332C53.6666 46.8221 53.336 45.986 52.6749 45.3249C52.0138 44.6637 51.1777 44.3332 50.1666 44.3332C49.1555 44.3332 48.3194 44.6637 47.6583 45.3249C46.9971 45.986 46.6666 46.8221 46.6666 47.8332C46.6666 48.8443 46.9971 49.6804 47.6583 50.3415C48.3194 51.0026 49.1555 51.3332 50.1666 51.3332Z" fill="black"/>
</svg>
