<svg width="2473" height="1527" viewBox="0 0 2473 1527" fill="none" xmlns="http://www.w3.org/2000/svg">
<path d="M992 6.00003H438M1524.5 1002C1417.67 1002 1194.9 1002 1158.5 1002C1122.1 1002 1113 1027.67 1113 1040.5C1113 1171.17 1113 1441.5 1113 1477.5C1113 1513.5 1089 1521.5 1077 1521C745.333 1521 74.4 1521 44 1521C13.6 1521 6 1482.67 6 1463.5C6 1373.33 6 1186.1 6 1158.5C6 1130.9 32.6667 1123 46 1122.5C59.1667 1122.5 94.2 1122.5 129 1122.5C163.8 1122.5 169.833 1087.5 168.5 1070C168.5 893.843 168.5 620.561 168.5 400.5M1524.5 1002C1537.83 1001.5 1564.5 993.3 1564.5 964.5C1564.5 935.7 1564.5 895.5 1564.5 879C1564.33 867.167 1571.7 843.5 1602.5 843.5C1616.17 843.5 1669.12 843.5 1733.5 843.5M1524.5 1002C1556.9 1002 1565.33 1024 1565.5 1035C1565.5 1052.33 1565.5 1094.3 1565.5 1123.5C1565.5 1152.7 1589.5 1160.67 1601.5 1161C1609 1161 1630.2 1161 1655 1161C1679.8 1161 1686.67 1136 1687 1123.5C1687 1053.5 1687 906.6 1687 879C1687 851.4 1718 843.833 1733.5 843.5M1974.5 843.5C1988.17 841.667 2015.5 831.3 2015.5 804.5C2015.5 777.7 2015.5 734.333 2015.5 716C2016.67 705.167 2026.1 683.5 2054.5 683.5C2082.9 683.5 2315.33 683.5 2428 683.5C2441.17 683.667 2467.5 690.9 2467.5 718.5C2467.5 746.1 2467.5 787.667 2467.5 805C2467 817.667 2458.4 843 2428 843C2397.6 843 2113 843.333 1974.5 843.5ZM1974.5 843.5C1912.69 843.5 1814.13 843.5 1733.5 843.5M168.5 400.5C168.5 211.437 168.5 61.6574 168.5 46.5C168.5 13.7 199.833 5.83336 215.5 6.00003H438M168.5 400.5C166.333 375.167 173.7 324.5 220.5 324.5C267.3 324.5 315 324.5 333 324.5C346.833 325.333 374.5 316.1 374.5 272.5C374.5 228.9 374.5 103.667 374.5 46.5C373.667 32.1667 385.2 4.00013 438 6.00003" stroke="#EC008C" stroke-width="11"/>
</svg>
